<svg xmlns="http://www.w3.org/2000/svg" width="148" height="47" viewBox="0 0 148 47">
  <g id="logo" transform="translate(-10 3.48)">
    <g id="_1844685207568" transform="translate(81.385 8.095)">
      <path id="Path_26" data-name="Path 26" d="M3869.593,916.389l3.187-12.147c.211-1.115,1.084-1.13,1.349,0l4.227,14.656h1.876l-4.386-15.545c-.987-2.554-3.91-2.607-4.792,0l-3.262,12.878c-.338,1.01-1.273.919-1.613-.03l-3.263-12.847c-.881-2.607-3.8-2.554-4.792,0L3853.74,918.9h1.876l4.227-14.656c.263-1.13,1.107-1.115,1.319,0l3.216,12.147C3865.321,919.863,3868.628,919.863,3869.593,916.389Z" transform="translate(-3853.74 -900.799)" fill="#fff" fill-rule="evenodd"/>
      <path id="Path_27" data-name="Path 27" d="M6235.294,909.721v-4.483h6.21v-1.831h-6.179v-4.981c.021-.648.074-1.062,1.062-1.062h9.547v15.688h2.035V897.318h9.591c5.109.1,4.16,6.556.054,6.563h-2.705a2.059,2.059,0,0,0-2.036,2.035V912.9h1.824v-6.518c-.105-.573.521-1.047,1.516-.889h1.348c6.782-.158,7.144-9.645,0-9.984h-20.91c-3.5.1-3.286,1.748-3.391,3.052V910.03c.053,1.929.784,2.924,2.714,2.969h5.267v-1.718h-4.227C6235.814,911.281,6235.294,911.3,6235.294,909.721Z" transform="translate(-6205.614 -894.96)" fill="#fff" fill-rule="evenodd"/>
      <path id="Path_28" data-name="Path 28" d="M8890.433,866.365a9.1,9.1,0,1,0-9.1-9.1A9.124,9.124,0,0,0,8890.433,866.365Zm-.008-1.665a7.43,7.43,0,1,0-7.43-7.43A7.45,7.45,0,0,0,8890.425,864.7Z" transform="translate(-8822.92 -848.16)" fill="#fff" fill-rule="evenodd"/>
    </g>
    <g id="_1844685207888" transform="translate(10 -3.48)">
      <path id="Path_29" data-name="Path 29" d="M30.541,0A30.789,30.789,0,0,1,56.469,47H4.614A30.789,30.789,0,0,1,30.541,0Z" transform="translate(0)" fill="#fefefe" fill-rule="evenodd"/>
      <path id="Path_30" data-name="Path 30" d="M354.941,401.334c2.752-9.468,5.573-18.936,8.331-28.4,14.116,5.613,22.225,24.086,9.347,39.458H361.432c14.309-6.336,16.914-22.855,7.361-32.119-1.573-1.54-3.817-1.209-4.479,1.084l-9.372,31.035-9.372-31.035c-.663-2.292-2.907-2.623-4.479-1.084-9.553,9.264-6.948,25.783,7.361,32.119H337.263c-12.878-15.372-4.769-33.845,9.347-39.458C349.368,382.4,352.189,391.866,354.941,401.334Z" transform="translate(-324.4 -365.388)" fill="#2a4b8a" fill-rule="evenodd"/>
    </g>
  </g>
</svg>
